<?xml version="1.0" encoding="UTF-8" standalone="no"?>
<!-- Created with Inkscape (http://www.inkscape.org/) -->

<svg
   width="594.86328mm"
   height="268.4429mm"
   viewBox="0 0 594.86328 268.4429"
   version="1.1"
   id="svg5"
   xml:space="preserve"
   xmlns:inkscape="http://www.inkscape.org/namespaces/inkscape"
   xmlns:sodipodi="http://sodipodi.sourceforge.net/DTD/sodipodi-0.dtd"
   xmlns="http://www.w3.org/2000/svg"
   xmlns:svg="http://www.w3.org/2000/svg"><sodipodi:namedview
     id="namedview7"
     pagecolor="#ffffff"
     bordercolor="#000000"
     borderopacity="0.25"
     inkscape:showpageshadow="2"
     inkscape:pageopacity="0.0"
     inkscape:pagecheckerboard="0"
     inkscape:deskcolor="#d1d1d1"
     inkscape:document-units="mm"
     showgrid="false"
     showguides="true"><sodipodi:guide
       position="226.05607,4.0143124e-05"
       orientation="0,-1"
       id="guide21519"
       inkscape:locked="false" /></sodipodi:namedview><defs
     id="defs2" /><g
     inkscape:label="Capa 1"
     inkscape:groupmode="layer"
     id="layer1"
     transform="translate(38.04691,352.14742)"><g
       id="g2098"
       transform="translate(290.49298,-143.07671)"
       inkscape:export-filename="device.svg"
       inkscape:export-xdpi="96"
       inkscape:export-ydpi="96"><path
         d="M 48.357516,-174.78408 H -209.34347 c -2.04665,0 -3.89888,0.82889 -5.23957,2.16889 -1.34109,1.34041 -2.17036,3.19227 -2.17036,5.23779 V 9.1029737 c 0,2.0444503 0.82958,3.8964903 2.17102,5.2372503 1.34086,1.34017 3.19306,2.16944 5.23891,2.16944 H 48.357516 c 2.04663,0 3.89887,-0.8289 5.23957,-2.1689 1.34109,-1.34041 2.17035,-3.19227 2.17035,-5.2377903 V -167.3774 c 0,-2.04445 -0.82957,-3.89649 -2.17101,-5.23724 -1.34086,-1.34018 -3.19307,-2.16944 -5.23891,-2.16944 z"
         id="Case"
         stroke="#141c3a"
         stroke-width="2.11667"
         fill="#ffffff"
         style="fill:#eeeeee;fill-opacity:1;fill-rule:evenodd;stroke:#eeeeee;stroke-opacity:1"
         inkscape:export-filename="hero.svg"
         inkscape:export-xdpi="96"
         inkscape:export-ydpi="96" /><path
         d="M 35.660826,-158.37992 H -196.91137 c -0.87588,0 -1.66968,0.35572 -2.24432,0.9313 -0.57379,0.57471 -0.92896,1.36856 -0.92896,2.24541 v 131.494504 c 0,0.87699 0.35504,1.67093 0.92884,2.24565 0.57441,0.57534 1.36798,0.93105 2.24444,0.93105 H 35.660826 c 0.87587,0 1.66968,-0.35572 2.24433,-0.93129 0.57377,-0.57472 0.92895,-1.36856 0.92895,-2.24541 V -155.20321 c 0,-0.877 -0.35505,-1.67093 -0.92885,-2.24566 -0.57438,-0.57534 -1.36797,-0.93105 -2.24443,-0.93105 z"
         id="path1052"
         stroke="#6e07f3"
         stroke-width="2.11667"
         fill="#6e07f3"
         style="fill:#ffc200;fill-opacity:1;fill-rule:evenodd;stroke:none;stroke-opacity:1"
         sodipodi:nodetypes="sssssssssssss" /><path
         d="m -60.82126,16.509664 h -39.078856 l -2.638244,34.13125 h 44.35534 z"
         id="path1054"
         stroke="#141c3a"
         stroke-width="2.11667"
         fill="#ffffff"
         style="fill:#eeeeee;fill-opacity:1;fill-rule:evenodd;stroke:#eeeeee;stroke-opacity:1" /><path
         d="m -42.12895,58.313824 h -76.46349 c -0.0731,0 -0.13926,-0.0295 -0.1871,-0.0774 -0.0485,-0.0485 -0.078,-0.11568 -0.078,-0.18965 v -3.56944 c 0,-1.05953 0.42948,-2.01855 1.12388,-2.71274 0.69462,-0.69437 1.65426,-1.12371 2.71424,-1.12371 h 69.317504 c 1.059629,0 2.019247,0.42957 2.713963,1.12405 0.694426,0.69419 1.124162,1.65315 1.124162,2.7124 v 3.56944 c 0,0.0741 -0.02905,0.1413 -0.07744,0.18975 -0.048,0.0481 -0.114485,0.0773 -0.187695,0.0773 z"
         id="Keyboard"
         stroke="#141c3a"
         stroke-width="2.11667"
         fill="#ffffff"
         style="fill:#eeeeee;fill-opacity:1;fill-rule:evenodd;stroke:#eeeeee;stroke-opacity:1" /><circle
         id="Oval-6"
         stroke="#141c3a"
         stroke-width="2.11667"
         cx="-80.360687"
         cy="-0.55596024"
         r="4.8947916"
         style="fill:none;fill-rule:evenodd" /></g><g
       id="g2054"
       transform="translate(314.70698,-360.56391)"><rect
         id="rect1058"
         stroke="#141c3a"
         stroke-width="2.11667"
         fill="#ffffff"
         x="-265.34875"
         y="172.48122"
         width="52.387501"
         height="102.92291"
         rx="6.3499999"
         style="fill:#eeeeee;fill-opacity:1;fill-rule:evenodd;stroke:#eeeeee;stroke-opacity:1" /><path
         d="m -212.96127,184.12288 h -52.3875 v 76.01479 h 52.3875 z"
         id="path1060"
         stroke="#141c3a"
         stroke-width="2.11667"
         fill="#141c3a"
         style="fill:#ffc200;fill-opacity:1;fill-rule:evenodd;stroke:#eeeeee;stroke-opacity:1" /><rect
         id="Rectangle-11"
         fill="#141c3a"
         x="-251.59044"
         y="177.24371"
         width="25.135416"
         height="2.1166666"
         rx="1.0583333"
         style="fill-rule:evenodd;stroke:none;stroke-width:0.264583" /><rect
         id="rect1063"
         fill="#141c3a"
         x="-242.06543"
         y="264.55621"
         width="6.0324998"
         height="6.0324998"
         rx="3.0162499"
         style="fill-rule:evenodd;stroke:none;stroke-width:0.264583" /><circle
         id="circle1065"
         stroke="#6e07f3"
         stroke-width="2.11667"
         fill="#6e07f3"
         cx="-250.5321"
         cy="221.9583"
         r="3.96875"
         style="fill:#dd0b0b;fill-opacity:1;fill-rule:evenodd;stroke:#dd0b0b;stroke-opacity:1" /><g
         id="Group-73"
         transform="matrix(0.26458333,0,0,0.26458333,-241.27169,215.07913)"
         fill="#ffffff"
         style="fill-rule:evenodd;stroke:none;stroke-width:1"><rect
           id="rect1067"
           x="0"
           y="0"
           width="70"
           height="8"
           rx="4"
           style="fill:#000000;fill-opacity:1" /><rect
           id="rect1069"
           x="0"
           y="22"
           width="50"
           height="8"
           rx="4"
           style="fill:#000000;fill-opacity:1" /><rect
           id="rect1071"
           x="0"
           y="44"
           width="30"
           height="8"
           rx="4"
           style="fill:#000000;fill-opacity:1" /></g></g><g
       id="g18511"
       inkscape:export-filename="hero.svg"
       inkscape:export-xdpi="96"
       inkscape:export-ydpi="96"
       transform="translate(82.721229,-165.00378)"><circle
         id="Oval-3"
         fill="#293347"
         cx="102.40796"
         cy="-135.02074"
         r="1.3229166"
         style="fill-rule:evenodd;stroke:none;stroke-width:0.264583" /><path
         d="M 146.85796,-172.06241 H 28.853793 v 115.09414 c 0,1.461846 0.592189,2.784443 1.549804,3.741655 0.958121,0.957718 2.281942,1.54962 3.744145,1.54962 H 141.56401 c 1.4621,0 2.78562,-0.592215 3.74361,-1.549808 0.95791,-0.957506 1.55034,-2.280314 1.55034,-3.741467 z"
         id="path1082"
         stroke="#141c3a"
         stroke-width="2.11667"
         fill="#141c3a"
         style="fill:#ffffff;fill-opacity:1;fill-rule:evenodd;stroke:#eeeeee;stroke-opacity:1" /><path
         d="M 141.56401,-186.08533 H 34.147742 c -1.46207,0 -2.785555,0.59235 -3.74353,1.55014 -0.957973,0.95778 -1.550419,2.28097 -1.550419,3.74253 v 7.14275 H 146.85796 v -7.14275 c 0,-1.46113 -0.59269,-2.78434 -1.55079,-3.74225 -0.958,-0.95781 -2.28139,-1.55042 -3.74316,-1.55042 z"
         id="path1084"
         stroke="#141c3a"
         stroke-width="2.11667"
         fill="#ffffff"
         style="fill:#eeeeee;fill-opacity:1;fill-rule:evenodd;stroke:#eeeeee;stroke-opacity:1" /><circle
         id="Oval-5"
         fill="#141c3a"
         cx="38.114208"
         cy="-179.73532"
         r="2.3812499"
         style="fill:#dd0b0b;fill-opacity:1;fill-rule:evenodd;stroke:none;stroke-width:0.264583" /><circle
         id="circle1087"
         fill="#6e07f3"
         cx="46.051708"
         cy="-179.73532"
         r="2.3812499"
         style="fill:#39b312;fill-opacity:1;fill-rule:evenodd;stroke:none;stroke-width:0.264583" /><circle
         id="circle1089"
         fill="#5be9b9"
         cx="53.989208"
         cy="-179.73532"
         r="2.3812499"
         style="fill:#f3ba00;fill-opacity:1;fill-rule:evenodd;stroke:none;stroke-width:0.264583" /><rect
         id="rect1091"
         fill="#535b6b"
         opacity="0.54"
         x="41.553795"
         y="-96.391571"
         width="4.7624998"
         height="2.1166666"
         rx="1.0583333"
         style="fill-rule:evenodd;stroke:none;stroke-width:0.264583" /><rect
         id="rect1093"
         fill="#535b6b"
         opacity="0.54"
         x="41.553795"
         y="-149.30824"
         width="4.7624998"
         height="2.1166666"
         rx="1.0583333"
         style="fill-rule:evenodd;stroke:none;stroke-width:0.264583" /><path
         d="m 50.549626,-149.30824 h 7.14375 c 0.584501,0 1.058333,0.47383 1.058333,1.05833 0,0.5845 -0.473832,1.05834 -1.058333,1.05834 h -7.14375 c -0.584501,0 -1.058333,-0.47384 -1.058333,-1.05834 0,-0.5845 0.473832,-1.05833 1.058333,-1.05833 z"
         id="path1095"
         fill="#6e07f3"
         style="fill:#dd0b0b;fill-opacity:1;fill-rule:evenodd;stroke:none;stroke-width:0.264583" /><path
         d="m 62.455876,-149.30824 h 7.14375 c 0.584502,0 1.058333,0.47383 1.058333,1.05833 0,0.5845 -0.473831,1.05834 -1.058333,1.05834 h -7.14375 c -0.584501,0 -1.058333,-0.47384 -1.058333,-1.05834 0,-0.5845 0.473832,-1.05833 1.058333,-1.05833 z"
         id="path1097"
         fill="#5be9b9"
         style="fill:#f3ba00;fill-opacity:1;fill-rule:evenodd;stroke:none;stroke-width:0.264583" /><path
         d="m 74.362126,-149.30824 h 13.229166 c 0.584502,0 1.058334,0.47383 1.058334,1.05833 0,0.5845 -0.473832,1.05834 -1.058334,1.05834 H 74.362126 c -0.584502,0 -1.058333,-0.47384 -1.058333,-1.05834 0,-0.5845 0.473831,-1.05833 1.058333,-1.05833 z"
         id="path1099"
         fill="#6e07f3"
         style="fill:#dd0b0b;fill-opacity:1;fill-rule:evenodd;stroke:none;stroke-width:0.264583" /><path
         d="m 92.353792,-149.30824 h 19.579168 c 0.5845,0 1.05833,0.47383 1.05833,1.05833 0,0.5845 -0.47383,1.05834 -1.05833,1.05834 H 92.353792 c -0.584501,0 -1.058333,-0.47384 -1.058333,-1.05834 0,-0.5845 0.473832,-1.05833 1.058333,-1.05833 z"
         id="path1101"
         fill="#6e07f3"
         style="fill:#dd0b0b;fill-opacity:1;fill-rule:evenodd;stroke:none;stroke-width:0.264583" /><rect
         id="rect1103"
         fill="#535b6b"
         opacity="0.54"
         x="41.553795"
         y="-138.7249"
         width="4.7624998"
         height="2.1166666"
         rx="1.0583333"
         style="fill-rule:evenodd;stroke:none;stroke-width:0.264583" /><rect
         id="rect1105"
         fill="#535b6b"
         opacity="0.54"
         x="41.553795"
         y="-128.14157"
         width="4.7624998"
         height="2.1166666"
         rx="1.0583333"
         style="fill-rule:evenodd;stroke:none;stroke-width:0.264583" /><rect
         id="rect1107"
         fill="#535b6b"
         opacity="0.54"
         x="41.553795"
         y="-117.55824"
         width="4.7624998"
         height="2.1166666"
         rx="1.0583333"
         style="fill-rule:evenodd;stroke:none;stroke-width:0.264583" /><rect
         id="rect1109"
         fill="#535b6b"
         opacity="0.54"
         x="41.553795"
         y="-106.97491"
         width="4.7624998"
         height="2.1166666"
         rx="1.0583333"
         style="fill-rule:evenodd;stroke:none;stroke-width:0.264583" /><rect
         id="rect1111"
         fill="#535b6b"
         opacity="0.54"
         x="41.553795"
         y="-85.808243"
         width="4.7624998"
         height="2.1166666"
         rx="1.0583333"
         style="fill-rule:evenodd;stroke:none;stroke-width:0.264583" /><rect
         id="rect1113"
         fill="#535b6b"
         opacity="0.54"
         x="41.553795"
         y="-75.224907"
         width="4.7624998"
         height="2.1166666"
         rx="1.0583333"
         style="fill-rule:evenodd;stroke:none;stroke-width:0.264583" /><rect
         id="rect1115"
         fill="#6e07f3"
         x="49.491291"
         y="-138.7249"
         width="18.520834"
         height="2.1166666"
         rx="1.0583333"
         style="fill:#dd0b0b;fill-opacity:1;fill-rule:evenodd;stroke:none;stroke-width:0.264583" /><rect
         id="rect1117"
         fill="#5be9b9"
         x="70.657959"
         y="-138.7249"
         width="31.75"
         height="2.1166666"
         rx="1.0583333"
         style="fill:#f3ba00;fill-opacity:1;fill-rule:evenodd;stroke:none;stroke-width:0.264583" /><rect
         id="rect1119"
         fill="#6e07f3"
         x="105.05379"
         y="-138.7249"
         width="13.229166"
         height="2.1166666"
         rx="1.0583333"
         style="fill:#dd0b0b;fill-opacity:1;fill-rule:evenodd;stroke:none;stroke-width:0.264583" /><rect
         id="rect1121"
         fill="#5be9b9"
         x="49.491291"
         y="-128.14157"
         width="13.229166"
         height="2.1166666"
         rx="1.0583333"
         style="fill:#f3ba00;fill-opacity:1;fill-rule:evenodd;stroke:none;stroke-width:0.264583" /><rect
         id="rect1123"
         fill="#6e07f3"
         x="65.366295"
         y="-128.14157"
         width="13.229166"
         height="2.1166666"
         rx="1.0583333"
         style="fill:#dd0b0b;fill-opacity:1;fill-rule:evenodd;stroke:none;stroke-width:0.264583" /><rect
         id="rect1125"
         fill="#6e07f3"
         x="81.241295"
         y="-128.14157"
         width="7.9375"
         height="2.1166666"
         rx="1.0583333"
         style="fill:#dd0b0b;fill-opacity:1;fill-rule:evenodd;stroke:none;stroke-width:0.264583" /><rect
         id="rect1127"
         fill="#6e07f3"
         x="49.491291"
         y="-117.55824"
         width="26.458332"
         height="2.1166666"
         rx="1.0583333"
         style="fill:#dd0b0b;fill-opacity:1;fill-rule:evenodd;stroke:none;stroke-width:0.264583" /><rect
         id="rect1129"
         fill="#6e07f3"
         x="78.595459"
         y="-117.55824"
         width="18.520834"
         height="2.1166666"
         rx="1.0583333"
         style="fill:#dd0b0b;fill-opacity:1;fill-rule:evenodd;stroke:none;stroke-width:0.264583" /><rect
         id="rect1131"
         fill="#6e07f3"
         x="49.491291"
         y="-106.97491"
         width="26.458332"
         height="2.1166666"
         rx="1.0583333"
         style="fill:#dd0b0b;fill-opacity:1;fill-rule:evenodd;stroke:none;stroke-width:0.264583" /><rect
         id="rect1133"
         fill="#5be9b9"
         x="78.595459"
         y="-106.97491"
         width="34.395832"
         height="2.1166666"
         rx="1.0583333"
         style="fill:#f3ba00;fill-opacity:1;fill-rule:evenodd;stroke:none;stroke-width:0.264583" /><rect
         id="rect1135"
         fill="#6e07f3"
         x="49.491291"
         y="-96.391571"
         width="18.520834"
         height="2.1166666"
         rx="1.0583333"
         style="fill:#dd0b0b;fill-opacity:1;fill-rule:evenodd;stroke:none;stroke-width:0.264583" /><rect
         id="rect1137"
         fill="#5be9b9"
         x="70.657959"
         y="-96.391571"
         width="18.520834"
         height="2.1166666"
         rx="1.0583333"
         style="fill:#f3ba00;fill-opacity:1;fill-rule:evenodd;stroke:none;stroke-width:0.264583" /><rect
         id="rect1139"
         fill="#6e07f3"
         x="91.824623"
         y="-96.391571"
         width="10.583333"
         height="2.1166666"
         rx="1.0583333"
         style="fill:#dd0b0b;fill-opacity:1;fill-rule:evenodd;stroke:none;stroke-width:0.264583" /><rect
         id="rect1141"
         fill="#6e07f3"
         x="49.491291"
         y="-85.808243"
         width="34.395832"
         height="2.1166666"
         rx="1.0583333"
         style="fill:#dd0b0b;fill-opacity:1;fill-rule:evenodd;stroke:none;stroke-width:0.264583" /><rect
         id="rect1143"
         fill="#5be9b9"
         x="49.491291"
         y="-75.224907"
         width="15.875"
         height="2.1166666"
         rx="1.0583333"
         style="fill:#f3ba00;fill-opacity:1;fill-rule:evenodd;stroke:none;stroke-width:0.264583" /></g><g
       id="g19496"
       transform="translate(323.07735,-286.35842)"><path
         d="M 185.14989,190.48303 H -37.104502 c -0.07223,0 -0.137557,0.0295 -0.184891,0.0769 -0.04797,0.048 -0.0775,0.11443 -0.0775,0.18769 v 5.29165 c 0,1.53453 0.621983,2.9235 1.627638,3.92886 1.005893,1.0056 2.395564,1.62739 3.930517,1.62739 H 179.85412 c 1.53493,0 2.92452,-0.6219 3.93033,-1.62745 1.00576,-1.00545 1.62782,-2.39449 1.62782,-3.9288 v -5.29165 c 0,-0.0732 -0.0299,-0.13944 -0.0779,-0.18749 -0.0472,-0.0473 -0.11231,-0.0771 -0.18446,-0.0771 z"
         id="path1077"
         stroke="#141c3a"
         stroke-width="2.11667"
         fill="#ffffff"
         style="fill:#eeeeee;fill-opacity:1;fill-rule:evenodd;stroke:#eeeeee;stroke-opacity:1" /><g
         id="g2134"
         transform="translate(-124.20121,-80.158593)"><g
           id="g2125"><path
             d="M 288.71389,139.14371 H 107.73392 c -2.0456,0 -3.89697,0.82915 -5.23701,2.16968 -1.34011,1.3406 -2.16884,3.19271 -2.16884,5.23854 V 263.2334 c 0,2.04456 0.82907,3.89691 2.16961,5.23794 1.34019,1.3407 3.19148,2.17028 5.23624,2.17028 h 180.97997 c 2.0456,0 3.89697,-0.82914 5.237,-2.16968 1.34012,-1.3406 2.16884,-3.1927 2.16884,-5.23854 V 146.55193 c 0,-2.04456 -0.82907,-3.89691 -2.16961,-5.23794 -1.34019,-1.3407 -3.19148,-2.17028 -5.23623,-2.17028 z"
             id="path1075"
             stroke="#141c3a"
             stroke-width="2.11667"
             fill="#ffffff"
             style="fill:#eeeeee;fill-opacity:1;fill-rule:evenodd;stroke:#eeeeee;stroke-opacity:1" /><path
             d="m 212.85277,270.7603 -29.62886,1.1e-4 c 0.51567,1.35859 1.38194,2.54427 2.48777,3.44713 1.4124,1.15316 3.21638,1.84436 5.1817,1.84436 h 14.29023 c 1.96469,0 3.76848,-0.69144 5.18094,-1.84467 1.10587,-0.90291 1.97233,-2.08855 2.48822,-3.44693 z"
             id="Notch"
             stroke="#141c3a"
             stroke-width="2.11667"
             fill="#ffffff"
             style="fill-rule:evenodd" /><rect
             id="Screen"
             fill="#5be9b9"
             x="108.00098"
             y="150.5208"
             width="180.28882"
             height="108.96854"
             rx="2.1166666"
             style="fill:#ffc200;fill-opacity:1;fill-rule:evenodd;stroke:none;stroke-width:0.264583" /></g><g
           id="Group-78"
           transform="matrix(0.26458333,0,0,0.26458333,325.75307,266.14371)"
           style="fill:none;fill-rule:evenodd;stroke:none;stroke-width:1"><path
             d="M 63,4.2 C 46.762828,4.2 32.062828,10.781414 21.422121,21.422121 11.706858,31.137384 5.3755035,44.236554 4.347689,58.8 H 121.65231 C 120.6245,44.236554 114.29314,31.137384 104.57788,21.422121 93.937172,10.781414 79.237172,4.2 63,4.2 Z"
             id="path1192"
             stroke="#141c3a"
             stroke-width="8.4"
             fill="#ffffff"
             style="stroke:none" /><rect
             id="rect1194"
             fill="#141c3a"
             x="59"
             y="5"
             width="8"
             height="13"
             rx="4"
             style="stroke:#141c3a;stroke-opacity:1" /></g></g></g><g
       id="Group-27"
       transform="matrix(0.26458333,0,0,0.26458333,-39.105242,-117.41579)"
       style="fill:none;fill-rule:evenodd;stroke:none;stroke-width:1"><path
         d="M 305,4 H 86.708254 63.000491 C 46.707955,4 31.957833,10.603855 21.280844,21.280844 10.603855,31.957833 4,46.707955 4,63.000491 c 0,16.292536 6.603855,31.042659 17.280844,41.719649 10.676989,10.67699 25.427111,17.28084 41.719647,17.28084 H 305 c 1.65685,0 3.15685,-0.67157 4.24264,-1.75736 C 310.32843,119.15784 311,117.65784 311,116.00098 v -9.2864 c 0,-2.09901 -0.81124,-4.01951 -2.14591,-5.45248 -1.33467,-1.43298 -3.19277,-2.378433 -5.28649,-2.527358 -13.84282,-0.984636 -24.13302,-4.49873 -31.03166,-10.2086 -7.26983,-6.017101 -11.03789,-14.479928 -11.03789,-25.52565 0,-11.060564 3.77633,-19.607721 11.12962,-25.768836 6.9491,-5.822461 17.32382,-9.519551 31.3217,-10.778933 2.00271,-0.23845 3.76158,-1.205956 5.0221,-2.619599 C 310.23702,22.413856 311,20.544302 311,18.509441 V 10 C 311,8.3431458 310.32843,6.8431457 309.24264,5.7573593 308.15685,4.6715729 306.65685,4 305,4 Z"
         id="Rectangle-17"
         stroke="#141c3a"
         stroke-width="8"
         fill="#6e07f3"
         style="fill:#ffc200;fill-opacity:1;stroke:none;stroke-opacity:1"
         sodipodi:nodetypes="scsssssssssssssscsssss" /><path
         d="M 292.78611,27 H 62 C 52.058875,27 43.058875,31.029437 36.544156,37.544156 30.029437,44.058875 26,53.058875 26,63 26,72.941125 30.029437,81.941125 36.544156,88.455844 43.058875,94.970563 52.058875,99 62,99 c 108.89608,0 186.32825,0.207629 232.29651,0.622677 h -1e-5 C 286.25043,97.44987 277.02258,94.370416 270.4704,87.641048 265.20683,82.235138 261.49805,74.537503 261.49805,63 c 0,-11.646962 3.77845,-19.372547 9.12075,-24.760067 C 276.74987,32.056966 285.17586,29.041635 292.78611,27 Z"
         id="Rectangle-19"
         stroke="#141c3a"
         stroke-width="8"
         fill="#ffffff"
         sodipodi:nodetypes="cssssssssssc"
         style="stroke:none;stroke-opacity:1" /><path
         d="M 57.925234,72 H 260.07477 C 262.24261,72 264,73.790861 264,76 c 0,2.209139 -1.75739,4 -3.92523,4 H 57.925234 C 55.757387,80 54,78.209139 54,76 c 0,-2.209139 1.757387,-4 3.925234,-4 z"
         id="Rectangle-18"
         fill="#141c3a" /><path
         d="M 57.925234,46 H 260.07477 C 262.24261,46 264,47.790861 264,50 c 0,2.209139 -1.75739,4 -3.92523,4 H 57.925234 C 55.757387,54 54,52.209139 54,50 c 0,-2.209139 1.757387,-4 3.925234,-4 z"
         id="path1200"
         fill="#141c3a"
         sodipodi:nodetypes="sssssss" /></g><g
       id="g19503"
       transform="translate(237.62588,-234.7928)"><circle
         id="Oval-7"
         stroke="#141c3a"
         stroke-width="2.11667"
         fill="#5be9b9"
         cx="-231.85971"
         cy="19.170361"
         r="40.613541"
         style="fill:#ffc200;fill-opacity:1;fill-rule:evenodd;stroke:none;stroke-opacity:1" /><g
         id="Group-94"
         transform="matrix(0.26458333,0,0,0.26458333,-255.27532,2.1047265)"
         fill="#141c3a"
         fill-rule="nonzero"
         style="fill:#000000;fill-opacity:1;stroke:none;stroke-width:1"><path
           d="M 51.154264,100.35679 C 46.246682,95.993776 41.3391,91.630763 36.431517,87.267749 28.610758,80.322543 20.812407,73.355078 12.991648,66.409872 11.198924,64.829393 9.4061998,63.226653 7.6358846,61.646174 c 0,2.092465 0,4.207191 0,6.299657 4.9075824,-4.363014 9.8151654,-8.726027 14.7227474,-13.089041 7.820759,-6.945205 15.61911,-13.912671 23.439869,-20.857877 1.792724,-1.580479 3.585448,-3.183219 5.355763,-4.763698 1.747907,-1.558219 1.725497,-4.741439 0,-6.299658 -1.859951,-1.714041 -4.459401,-1.66952 -6.341761,0 -4.907583,4.363014 -9.815165,8.726028 -14.722748,13.089041 -7.820759,6.945206 -15.619109,13.912671 -23.4398687,20.857877 -1.7927242,1.58048 -3.5854484,3.183219 -5.3557635,4.763699 -1.72549706,1.535959 -1.72549706,4.763698 0,6.299657 4.9075825,4.363014 9.8151652,8.726028 14.7227472,13.089041 7.820759,6.945206 15.61911,13.912671 23.439869,20.857878 1.792724,1.58048 3.585448,3.18322 5.355764,4.7637 1.747906,1.55822 4.638674,1.8476 6.341761,0 1.568634,-1.69178 1.859952,-4.63014 0,-6.29966 z"
           id="Shape"
           style="fill:#000000;fill-opacity:1" /><path
           d="m 125.88587,29.245804 c 4.90759,4.363014 9.81517,8.726028 14.72275,13.089041 7.82076,6.945206 15.61911,13.912672 23.43987,20.857877 1.79272,1.58048 3.58545,3.183219 5.35576,4.763699 0,-2.092466 0,-4.207192 0,-6.299658 -4.90758,4.363014 -9.81516,8.726028 -14.72275,13.089041 -7.82075,6.945206 -15.6191,13.912671 -23.43986,20.857877 -1.79273,1.58048 -3.58545,3.183219 -5.35577,4.763699 -1.7479,1.55822 -1.72549,4.74144 0,6.29966 1.85995,1.71404 4.4594,1.66952 6.34176,0 4.90759,-4.36302 9.81517,-8.72603 14.72275,-13.089044 7.82076,-6.945205 15.61911,-13.912671 23.43987,-20.857877 1.79272,-1.580479 3.58545,-3.183219 5.35576,-4.763698 1.7255,-1.535959 1.7255,-4.763699 0,-6.299658 -4.90758,-4.363014 -9.81516,-8.726027 -14.72274,-13.089041 -7.82076,-6.945205 -15.61911,-13.912671 -23.43987,-20.857877 -1.79273,-1.580479 -3.58545,-3.183219 -5.35577,-4.763698 -1.7479,-1.558219 -4.63867,-1.847603 -6.34176,0 -1.56863,1.691781 -1.85995,4.630137 0,6.299657 z"
           id="path1204"
           style="fill:#000000;fill-opacity:1" /><path
           d="m 72.538103,126.57192 c 1.344543,-4.00685 2.666677,-8.0137 4.01122,-12.04281 3.204495,-9.6387 6.408989,-19.255137 9.613484,-28.893836 3.854357,-11.619863 7.708714,-23.217466 11.58548,-34.837329 3.338953,-10.039383 6.677893,-20.078767 10.016843,-30.118151 1.59105,-4.874999 3.38377,-9.727739 4.86277,-14.66952 0.0224,-0.066781 0.0448,-0.1335617 0.0672,-0.2003425 0.73949,-2.2037671 -0.85155,-4.96404109 -3.13727,-5.47602739 -2.465,-0.55650685 -4.72831,0.73458899 -5.51263,3.11643839 -1.34454,4.0068493 -2.66668,8.0136985 -4.01122,12.0428085 -3.204494,9.638698 -6.408989,19.255137 -9.613483,28.893835 -3.854357,11.619863 -7.708714,23.217466 -11.58548,34.837329 -3.338949,10.039384 -6.677898,20.078767 -10.016847,30.118155 -1.591043,4.85274 -3.383767,9.70548 -4.862764,14.64726 -0.02241,0.0668 -0.04482,0.13356 -0.06723,0.20034 -0.739498,2.20377 0.851544,4.96404 3.137268,5.47603 2.464996,0.5565 4.72831,-0.73459 5.512627,-3.09418 z"
           id="path1206"
           style="fill:#000000;fill-opacity:1" /></g></g><g
       id="g16202"
       transform="translate(225.74339,-88.648384)"
       inkscape:export-filename="hero2.svg"
       inkscape:export-xdpi="96"
       inkscape:export-ydpi="96"><g
         id="g4345"><g
           id="g2120"
           transform="translate(13.577143,-95.249999)"><path
             d="M 299.70373,-64.112415 H 154.71207 v 103.18656 c 0,2.046525 0.82943,3.89873 2.17042,5.239382 1.34109,1.340755 3.19387,2.16989 5.24045,2.16989 h 130.16992 c 2.0474,0 3.89977,-0.82913 5.24047,-2.169488 1.3412,-1.340866 2.1704,-3.193428 2.1704,-5.239784 z"
             id="path1147"
             stroke="#141c3a"
             stroke-width="2.11667"
             fill="#ffffff"
             style="fill-rule:evenodd;stroke:#eeeeee;stroke-opacity:1" /><path
             d="M 292.29286,-77.341581 H 162.12294 c -2.04735,0 -3.89965,0.828785 -5.24031,2.168522 -1.34133,1.340409 -2.17056,3.192353 -2.17056,5.238002 v 7.939309 h 144.99166 v -7.939309 c 0,-2.045397 -0.82954,-3.897117 -2.17082,-5.237477 -1.34104,-1.340122 -3.19366,-2.169047 -5.24005,-2.169047 z"
             id="path1149"
             stroke="#141c3a"
             stroke-width="2.11667"
             fill="#141c3a"
             style="fill:#eeeeee;fill-opacity:1;fill-rule:evenodd;stroke:#eeeeee;stroke-opacity:1" /><circle
             id="circle1151"
             fill="#ffffff"
             cx="166.08916"
             cy="-69.668663"
             r="2.3812499"
             style="fill:#dd0b0b;fill-opacity:1;fill-rule:evenodd;stroke:none;stroke-width:0.264583" /><circle
             id="circle1153"
             fill="#6e07f3"
             cx="174.02666"
             cy="-69.668663"
             r="2.3812499"
             style="fill:#39b312;fill-opacity:1;fill-rule:evenodd;stroke:none;stroke-width:0.264583" /><circle
             id="circle1155"
             fill="#5be9b9"
             cx="181.96416"
             cy="-69.668663"
             r="2.3812499"
             style="fill:#f3ba00;fill-opacity:1;fill-rule:evenodd;stroke:none;stroke-width:0.264583" /><circle
             id="circle1157"
             stroke="#6e07f3"
             stroke-width="2.38125"
             cx="244.40582"
             cy="-8.8144989"
             r="26.458332"
             style="fill:none;fill-opacity:1;fill-rule:evenodd;stroke:#141c3a;stroke-opacity:1" /><path
             d="m 247.8454,-38.447832 h -6.35 v 6.35 h 6.35 z"
             id="Rectangle-12"
             stroke="#5be9b9"
             stroke-width="2.11667"
             fill="#fffffe"
             style="fill-rule:evenodd;stroke:#141c3a;stroke-opacity:1" /><path
             d="m 247.58082,14.468834 h -6.35 v 6.35 h 6.35 z"
             id="path1160"
             stroke="#5be9b9"
             stroke-width="2.11667"
             fill="#fffffe"
             style="fill-rule:evenodd;stroke:#141c3a;stroke-opacity:1" /><path
             d="m 221.12248,-11.724915 h -6.35 v 6.3499996 h 6.35 z"
             id="path1162"
             stroke="#5be9b9"
             stroke-width="2.11667"
             fill="#fffffe"
             style="fill-rule:evenodd;stroke:#141c3a;stroke-opacity:1" /><line
             x1="286.21021"
             y1="-10.386057"
             x2="286.21021"
             y2="14.717479"
             id="line1165"
             stroke="#141c3a"
             stroke-width="2.38072"
             stroke-linecap="square"
             style="fill:none;fill-rule:evenodd" /><line
             x1="286.21021"
             y1="-32.432568"
             x2="286.21021"
             y2="-7.3290315"
             id="line1165-5"
             stroke="#141c3a"
             stroke-width="2.38072"
             stroke-linecap="square"
             style="fill:none;fill-rule:evenodd" /><circle
             id="circle1167"
             fill="#141c3a"
             cx="286.21021"
             cy="-33.42075"
             r="3.175"
             style="fill-rule:evenodd;stroke:none;stroke-width:0.264583" /><circle
             id="circle1169"
             fill="#141c3a"
             cx="286.21021"
             cy="16.850084"
             r="3.175"
             style="fill-rule:evenodd;stroke:none;stroke-width:0.264583" /><path
             d="m 273.77457,-11.724915 h -6.35 v 6.3499996 h 6.35 z"
             id="path1171"
             stroke="#5be9b9"
             stroke-width="2.11667"
             fill="#fffffe"
             style="fill-rule:evenodd;stroke:#141c3a;stroke-opacity:1" /><g
             id="Group-60"
             transform="matrix(0.26458333,0,0,0.26458333,179.5829,-41.887415)"
             style="fill:none;fill-rule:evenodd;stroke:none;stroke-width:1"><rect
               id="Rectangle-15"
               fill="#141c3a"
               x="0"
               y="0"
               width="70"
               height="70"
               rx="12"
               style="fill:#dd0b0b;fill-opacity:1" /><rect
               id="rect1175"
               fill="#5be9b9"
               x="0"
               y="90"
               width="70"
               height="70"
               rx="12"
               style="fill:#39b312;fill-opacity:1" /><rect
               id="rect1177"
               fill="#6e07f3"
               x="0"
               y="180"
               width="70"
               height="70"
               rx="12"
               style="fill:#f3ba00;fill-opacity:1" /></g></g></g></g></g></svg>
